# Blender 5.1.1
# www.blender.org
o Plane
v -0.949160 0.000000 0.949160
v 0.949160 0.000000 0.949160
v -0.949160 0.000000 -0.949160
v 0.949160 0.000000 -0.949160
v -1.000000 -3.000000 1.000000
v 1.000000 -3.000000 1.000000
v -1.000000 -3.000000 -1.000000
v 1.000000 -3.000000 -1.000000
v -1.000000 -0.063469 -1.000000
v -1.000000 -0.063469 1.000000
v 1.000000 -0.063469 1.000000
v 1.000000 -0.063469 -1.000000
vn -0.0000 1.0000 -0.0000
vn -0.0000 -0.0000 -1.0000
vn -0.0000 -0.0000 1.0000
vn 1.0000 -0.0000 -0.0000
vn -1.0000 -0.0000 -0.0000
vn -0.7805 0.6252 -0.0000
vn -0.0000 0.6252 0.7805
vn 0.7805 0.6252 -0.0000
vn -0.0000 0.6252 -0.7805
vt 0.025420 0.974580
vt 0.025420 0.025420
vt 0.974580 0.025420
vt 0.974580 0.974580
vt 1.000000 1.000000
vt 0.000000 1.000000
vt 0.000000 0.000000
vt 1.000000 0.000000
vt 1.000000 1.000000
vt 0.000000 1.000000
vt 0.000000 0.000000
vt 1.000000 0.000000
s 0
f 1/1/1 2/2/1 4/3/1 3/4/1
f 12/5/2 8/5/2 7/6/2 9/6/2
f 10/7/3 5/7/3 6/8/3 11/8/3
f 11/8/4 6/8/4 8/5/4 12/5/4
f 9/6/5 7/6/5 5/7/5 10/7/5
f 3/4/6 9/9/6 10/10/6 1/1/6
f 1/1/7 10/10/7 11/11/7 2/2/7
f 2/2/8 11/11/8 12/12/8 4/3/8
f 4/3/9 12/12/9 9/9/9 3/4/9
